<?xml version="1.0" standalone="no"?>
<!DOCTYPE svg PUBLIC "-//W3C//DTD SVG 20010904//EN"
 "http://www.w3.org/TR/2001/REC-SVG-20010904/DTD/svg10.dtd">
<svg version="1.0" xmlns="http://www.w3.org/2000/svg"
 width="498.000000pt" height="498.000000pt" viewBox="0 0 498.000000 498.000000"
 preserveAspectRatio="xMidYMid meet">
<metadata>
Created by potrace 1.14, written by Peter Selinger 2001-2017
</metadata>
<g transform="translate(0.000000,498.000000) scale(0.100000,-0.100000)"
fill="#000000" stroke="none">
<path d="M2298 4975 c-2 -2 -30 -6 -63 -9 -121 -11 -302 -45 -412 -77 -37 -11
-75 -22 -83 -24 -93 -20 -382 -151 -517 -232 -70 -42 -101 -63 -208 -137 -161
-113 -377 -328 -519 -516 -31 -41 -59 -79 -64 -85 -63 -82 -197 -337 -256
-485 -47 -119 -111 -331 -121 -403 -4 -23 -8 -44 -10 -47 -2 -4 -7 -29 -11
-56 -3 -27 -8 -58 -10 -69 -20 -96 -26 -445 -11 -603 9 -91 40 -268 62 -350
54 -200 97 -317 181 -487 74 -150 80 -161 155 -275 335 -512 884 -901 1473
-1044 115 -28 207 -47 251 -52 17 -1 64 -7 105 -12 76 -10 469 -8 525 2 17 3
48 7 70 10 22 3 65 10 95 16 30 6 69 13 85 16 95 16 232 58 383 116 417 161
808 456 1069 807 36 47 70 93 76 101 7 8 33 49 59 90 110 178 207 389 267 586
30 95 35 115 47 174 3 14 9 44 15 68 9 41 13 66 25 142 26 174 26 561 0 695
-2 11 -7 42 -10 68 -19 126 -79 353 -121 452 -7 17 -23 57 -36 90 -28 75 -78
176 -137 280 -216 376 -551 714 -917 923 -85 48 -284 141 -370 172 -49 18 -97
36 -106 40 -29 15 -300 78 -384 90 -44 6 -93 13 -110 16 -33 6 -461 14 -467 9z"/>
</g>
</svg>
